<svg width="256" height="256" viewBox="0 0 256 256" fill="none" xmlns="http://www.w3.org/2000/svg" role="img" aria-labelledby="title desc">
  <title id="title">Murmur app icon</title>
  <desc id="desc">A charcoal rounded-square icon with a golden lowercase m waveform and a white text cursor.</desc>
  <defs>
    <linearGradient id="murmur-amber" x1="20" x2="214" y1="112" y2="112" gradientUnits="userSpaceOnUse">
      <stop stop-color="#F2AE49"/>
      <stop offset=".38" stop-color="#FFD577"/>
      <stop offset=".72" stop-color="#F5BA55"/>
      <stop offset="1" stop-color="#E99F3E"/>
    </linearGradient>
    <radialGradient id="murmur-tile" cx="0" cy="0" r="1" gradientTransform="matrix(182 191 -191 182 82 58)" gradientUnits="userSpaceOnUse">
      <stop stop-color="#2D3437"/>
      <stop offset=".62" stop-color="#252B2E"/>
      <stop offset="1" stop-color="#1F2427"/>
    </radialGradient>
    <filter id="soft-shadow" x="-12" y="-12" width="280" height="280" color-interpolation-filters="sRGB">
      <feDropShadow dx="0" dy="3" stdDeviation="4" flood-color="#15191B" flood-opacity=".24"/>
    </filter>
  </defs>
  <rect width="256" height="256" rx="58" fill="url(#murmur-tile)"/>
  <g filter="url(#soft-shadow)">
    <path d="M-24 145H39C53.9 145 62 136.9 62 122V96.5C62 64.5 81.4 48 105.2 48C126.4 48 142.6 61.6 149.2 85.8C155.4 61.6 171.2 48 192.7 48C211 48 183 63.8 183 96.5V122C183 136.9 175 145 167 145H206" stroke="url(#murmur-amber)" stroke-width="16" stroke-linecap="round" stroke-linejoin="round"/>
    <path d="M149.5 88V143.5" stroke="url(#murmur-amber)" stroke-width="16" stroke-linecap="round"/>
    <path d="M214 80H239M226.5 80V176M214 176H239" stroke="#F7F6F1" stroke-width="7" stroke-linecap="round" stroke-linejoin="round"/>
    <path d="M226.5 95V161" stroke="#C8CCD0" stroke-width="2.5" stroke-linecap="round" opacity=".65"/>
  </g>
  <rect x="1.5" y="1.5" width="253" height="253" rx="56.5" stroke="#FFF8EA" stroke-opacity=".08" stroke-width="3"/>
</svg>
