<svg width="612" height="192" viewBox="0 0 612 192" fill="none" xmlns="http://www.w3.org/2000/svg" role="img" aria-labelledby="title desc">
  <title id="title">Murmur logo</title>
  <desc id="desc">Murmur logo with a golden lowercase m waveform app icon and a dark wordmark.</desc>
  <defs>
    <linearGradient id="murmur-logo-amber" x1="15" x2="160.5" y1="84" y2="84" gradientUnits="userSpaceOnUse">
      <stop stop-color="#F2AE49"/>
      <stop offset=".38" stop-color="#FFD577"/>
      <stop offset=".72" stop-color="#F5BA55"/>
      <stop offset="1" stop-color="#E99F3E"/>
    </linearGradient>
    <radialGradient id="murmur-logo-tile" cx="0" cy="0" r="1" gradientTransform="matrix(136.5 143.25 -143.25 136.5 61.5 43.5)" gradientUnits="userSpaceOnUse">
      <stop stop-color="#2D3437"/>
      <stop offset=".62" stop-color="#252B2E"/>
      <stop offset="1" stop-color="#1F2427"/>
    </radialGradient>
    <filter id="murmur-logo-shadow" x="-9" y="-9" width="210" height="210" color-interpolation-filters="sRGB">
      <feDropShadow dx="0" dy="2.25" stdDeviation="3" flood-color="#15191B" flood-opacity=".24"/>
    </filter>
  </defs>
  <rect width="192" height="192" rx="43.5" fill="url(#murmur-logo-tile)"/>
  <g filter="url(#murmur-logo-shadow)">
    <path d="M-33.75 108.75H13.5C24.675 108.75 30.75 102.675 30.75 91.5V72.375C30.75 48.375 45.3 36 63.15 36C79.05 36 91.2 46.2 96.15 64.35C101.1 46.2 113.25 36 129.15 36C147 36 161.55 48.375 161.55 72.375V91.5C161.55 102.675 167.625 108.75 178.8 108.75H226.05" stroke="url(#murmur-logo-amber)" stroke-width="12" stroke-linecap="round" stroke-linejoin="round"/>
    <path d="M96.375 66V107.625" stroke="url(#murmur-logo-amber)" stroke-width="12" stroke-linecap="round"/>
    <path d="M160.5 60H179.25M169.875 60V132M160.5 132H179.25" stroke="#F7F6F1" stroke-width="5.25" stroke-linecap="round" stroke-linejoin="round"/>
    <path d="M169.875 71.25V120.75" stroke="#C8CCD0" stroke-width="1.875" stroke-linecap="round" opacity=".65"/>
  </g>
  <rect x="1.125" y="1.125" width="189.75" height="189.75" rx="42.375" stroke="#FFF8EA" stroke-opacity=".08" stroke-width="2.25"/>
  <text x="232" y="122" fill="#202528" font-family="Geist, Inter, ui-sans-serif, system-ui, -apple-system, BlinkMacSystemFont, 'Segoe UI', sans-serif" font-size="76" font-weight="600" letter-spacing="0">Murmur</text>
</svg>
